<svg xmlns="http://www.w3.org/2000/svg" viewBox="0 0 1960 739" role="img" aria-labelledby="title desc">
  <title id="title">BIZEN smart HR management cover</title>
  <desc id="desc">BIZEN cover image with brand logo, Vietnamese slogan, dashboard and mobile app mockups.</desc>
  <defs>
    <linearGradient id="coverBlue" x1="0" y1="0" x2="1960" y2="739" gradientUnits="userSpaceOnUse">
      <stop offset="0" stop-color="#f7fdff"/>
      <stop offset="0.48" stop-color="#ffffff"/>
      <stop offset="1" stop-color="#ffe8f6"/>
    </linearGradient>
    <linearGradient id="topBlue" x1="1320" y1="0" x2="1950" y2="235" gradientUnits="userSpaceOnUse">
      <stop offset="0" stop-color="#60a5fa"/>
      <stop offset="1" stop-color="#c084fc"/>
    </linearGradient>
    <linearGradient id="waveBlue" x1="0" y1="650" x2="1020" y2="739" gradientUnits="userSpaceOnUse">
      <stop offset="0" stop-color="#2382ff"/>
      <stop offset="1" stop-color="#d8f1ff"/>
    </linearGradient>
    <linearGradient id="wavePink" x1="780" y1="650" x2="1960" y2="739" gradientUnits="userSpaceOnUse">
      <stop offset="0" stop-color="#f1ddff"/>
      <stop offset="0.54" stop-color="#de6ef2"/>
      <stop offset="1" stop-color="#7cb5ff"/>
    </linearGradient>
    <linearGradient id="bizenIconBlue" x1="92" y1="58" x2="302" y2="252" gradientUnits="userSpaceOnUse">
      <stop offset="0" stop-color="#19c8ff"/>
      <stop offset="0.52" stop-color="#0b7cff"/>
      <stop offset="1" stop-color="#4b4cf6"/>
    </linearGradient>
    <linearGradient id="bizenIconPink" x1="90" y1="334" x2="364" y2="462" gradientUnits="userSpaceOnUse">
      <stop offset="0" stop-color="#6d4cff"/>
      <stop offset="0.45" stop-color="#f238d8"/>
      <stop offset="1" stop-color="#ffa13b"/>
    </linearGradient>
    <linearGradient id="bizenIconMid" x1="136" y1="218" x2="336" y2="305" gradientUnits="userSpaceOnUse">
      <stop offset="0" stop-color="#2563eb"/>
      <stop offset="1" stop-color="#08b6ff"/>
    </linearGradient>
    <linearGradient id="brandAccent" x1="0" y1="0" x2="210" y2="0" gradientUnits="userSpaceOnUse">
      <stop offset="0" stop-color="#1188ff"/>
      <stop offset="0.5" stop-color="#f136c8"/>
      <stop offset="1" stop-color="#ff9f2e"/>
    </linearGradient>
    <linearGradient id="humanGradient" x1="126" y1="392" x2="585" y2="392" gradientUnits="userSpaceOnUse">
      <stop offset="0" stop-color="#1767ff"/>
      <stop offset="0.42" stop-color="#9a4dff"/>
      <stop offset="0.74" stop-color="#f23bb7"/>
      <stop offset="1" stop-color="#ff8f46"/>
    </linearGradient>
    <linearGradient id="phoneGradient" x1="1570" y1="106" x2="1838" y2="600" gradientUnits="userSpaceOnUse">
      <stop offset="0" stop-color="#1788ff"/>
      <stop offset="1" stop-color="#fd735d"/>
    </linearGradient>
    <filter id="softShadow" x="-20%" y="-20%" width="140%" height="150%">
      <feDropShadow dx="0" dy="18" stdDeviation="18" flood-color="#1e3a8a" flood-opacity="0.18"/>
    </filter>
    <filter id="cardShadow" x="-20%" y="-20%" width="140%" height="150%">
      <feDropShadow dx="0" dy="10" stdDeviation="12" flood-color="#334155" flood-opacity="0.14"/>
    </filter>
  </defs>

  <rect width="1960" height="739" fill="url(#coverBlue)"/>
  <path d="M1298 0H1960V233C1798 214 1646 179 1509 111C1419 66 1352 31 1298 0Z" fill="url(#topBlue)" opacity="0.48"/>
  <path d="M0 600C210 682 408 654 590 675C783 697 908 755 1104 718C1292 682 1370 629 1562 653C1736 674 1845 717 1960 666V739H0V600Z" fill="url(#wavePink)" opacity="0.78"/>
  <path d="M0 612C175 706 415 692 610 673C809 654 967 698 1106 739H0V612Z" fill="url(#waveBlue)" opacity="0.84"/>
  <path d="M0 0H602C535 54 452 73 323 66C181 59 82 34 0 92V0Z" fill="#7dd3fc" opacity="0.32"/>
  <path d="M0 568C206 650 476 658 664 617C812 586 892 516 1006 423" fill="none" stroke="#9cccfb" stroke-width="18" opacity="0.45"/>
  <path d="M940 366L972 340L984 381Z" fill="#86bdf6" opacity="0.65"/>
  <path d="M948 93L980 145L930 145Z" fill="#86bdf6" opacity="0.68"/>
  <path d="M973 145C940 267 826 407 621 460" fill="none" stroke="#c7e5ff" stroke-width="24" opacity="0.52"/>

  <g transform="translate(126 86) scale(0.44)">
    <path fill="url(#bizenIconBlue)" d="M112 98c0-30.9 25.1-56 56-56h93c61.3 0 111 49.7 111 111v16c0 55.2-44.8 100-100 100H151c-21.5 0-39-17.5-39-39V98Z"/>
    <path fill="#ffffff" d="M151 218c38.5-42.4 79-54.9 123-37.2 16.2 6.5 29.9 17.2 42.1 29.3-16.3 18.7-40.2 30.5-66.8 30.5H151V218Z" opacity="0.96"/>
    <circle cx="197" cy="128" r="38" fill="#ffffff"/>
    <path fill="url(#bizenIconPink)" d="M112 285c0-21.5 17.5-39 39-39h133c56.3 0 102 45.7 102 102v15c0 58.5-47.5 106-106 106H168c-30.9 0-56-25.1-56-56V285Z"/>
    <path fill="url(#bizenIconMid)" d="M142 270c35.8-45.8 86.1-64.4 149-51.9 25.1 5 46.2 16.7 63.6 32.7-19.4 26.5-50.7 43.7-86 43.7H151c-3.1 0-6.1-.4-9-1.1V270Z"/>
    <circle cx="287" cy="347" r="39" fill="#ffffff"/>
  </g>

  <g fill="#060b45" font-family="Montserrat, Arial, sans-serif" font-weight="800">
    <text x="354" y="226" font-size="135" letter-spacing="16">BIZ</text>
    <text x="754" y="226" font-size="135" letter-spacing="16">N</text>
  </g>
  <g transform="translate(632 132)">
    <rect x="0" y="0" width="92" height="13" rx="6.5" fill="#0da3ff"/>
    <rect x="0" y="41" width="92" height="13" rx="6.5" fill="#e536cd"/>
    <rect x="0" y="82" width="92" height="13" rx="6.5" fill="#ff982d"/>
  </g>
  <text x="354" y="291" fill="#070a3f" font-family="Georgia, 'Times New Roman', serif" font-size="29" font-weight="700">QUẢN TRỊ NHÂN SỰ THÔNG MINH</text>
  <text x="354" y="322" fill="#070a3f" font-family="Georgia, 'Times New Roman', serif" font-size="29" font-weight="700">DOANH NGHIỆP VẬN HÀNH AN NHIÊN</text>
  <rect x="356" y="346" width="215" height="3" rx="1.5" fill="url(#brandAccent)"/>

  <text x="126" y="418" font-family="Montserrat, Arial, sans-serif" font-size="43" font-weight="800">
    <tspan fill="#1767ff">Con </tspan><tspan fill="url(#humanGradient)">người</tspan><tspan fill="#060b45"> là trung tâm</tspan>
  </text>
  <text x="126" y="465" font-family="Montserrat, Arial, sans-serif" font-size="43" font-weight="800">
    <tspan fill="#1767ff">Công </tspan><tspan fill="url(#humanGradient)">nghệ</tspan><tspan fill="#060b45"> là sức mạnh</tspan>
  </text>
  <text x="126" y="513" fill="#36476d" font-family="Inter, Arial, sans-serif" font-size="20">BIZEN đồng hành cùng doanh nghiệp xây dựng môi trường làm việc</text>
  <text x="126" y="540" fill="#36476d" font-family="Inter, Arial, sans-serif" font-size="20">hiệu quả - kết nối - phát triển bền vững.</text>

  <g transform="translate(126 594)" font-family="Inter, Arial, sans-serif">
    <g>
      <rect width="39" height="39" rx="10" fill="#635bff"/>
      <circle cx="15" cy="16" r="6" fill="#fff"/>
      <circle cx="25" cy="16" r="6" fill="#fff" opacity="0.85"/>
      <path d="M8 30c2-8 8-12 17-12s15 4 17 12" fill="none" stroke="#fff" stroke-width="3" stroke-linecap="round"/>
      <text x="55" y="14" font-size="12" font-weight="800" fill="#0b1248">QUẢN LÝ NHÂN SỰ</text>
      <text x="55" y="32" font-size="13" fill="#26385c">Toàn diện</text>
    </g>
    <g transform="translate(190 0)">
      <rect width="39" height="39" rx="10" fill="#8b5cf6"/>
      <path d="M12 13h15v16H12z" fill="none" stroke="#fff" stroke-width="3"/>
      <path d="M15 10v7M25 10v7M16 23l4 4 8-10" fill="none" stroke="#fff" stroke-width="3" stroke-linecap="round"/>
      <text x="55" y="14" font-size="12" font-weight="800" fill="#0b1248">CHẤM CÔNG THÔNG MINH</text>
      <text x="55" y="32" font-size="13" fill="#26385c">Chính xác - Linh hoạt</text>
    </g>
    <g transform="translate(424 0)">
      <rect width="39" height="39" rx="10" fill="#f59e0b"/>
      <rect x="10" y="20" width="5" height="10" rx="2" fill="#fff"/>
      <rect x="18" y="14" width="5" height="16" rx="2" fill="#fff"/>
      <rect x="26" y="8" width="5" height="22" rx="2" fill="#fff"/>
      <text x="55" y="14" font-size="12" font-weight="800" fill="#0b1248">BÁO CÁO REAL-TIME</text>
      <text x="55" y="32" font-size="13" fill="#26385c">Dữ liệu trực quan</text>
    </g>
    <g transform="translate(624 0)">
      <rect width="39" height="39" rx="10" fill="#0ea5e9"/>
      <path d="M20 9l12 5v8c0 8-5 13-12 16C13 35 8 30 8 22v-8l12-5Z" fill="none" stroke="#fff" stroke-width="3"/>
      <path d="M15 22l4 4 8-10" fill="none" stroke="#fff" stroke-width="3" stroke-linecap="round"/>
      <text x="55" y="14" font-size="12" font-weight="800" fill="#0b1248">BẢO MẬT TUYỆT ĐỐI</text>
      <text x="55" y="32" font-size="13" fill="#26385c">An toàn dữ liệu</text>
    </g>
  </g>

  <g transform="translate(1018 76) rotate(-2)" filter="url(#softShadow)">
    <rect width="676" height="488" rx="22" fill="#f7fbff" stroke="#d8e4f2" stroke-width="3"/>
    <rect x="18" y="18" width="125" height="452" rx="16" fill="#eef5ff"/>
    <text x="46" y="62" font-family="Inter, Arial, sans-serif" font-size="20" font-weight="800" fill="#1767ff">BIZEN</text>
    <g fill="#2e5fff" font-family="Inter, Arial, sans-serif" font-size="12" font-weight="700">
      <rect x="32" y="95" width="96" height="28" rx="8" fill="#dbeafe"/>
      <text x="55" y="114">Tổng quan</text>
      <text x="55" y="154" fill="#405477">Nhân sự</text>
      <text x="55" y="193" fill="#405477">Chấm công</text>
      <text x="55" y="232" fill="#405477">Lịch làm việc</text>
      <text x="55" y="271" fill="#405477">Yêu cầu</text>
      <text x="55" y="310" fill="#405477">Bảng lương</text>
      <text x="55" y="349" fill="#405477">Báo cáo</text>
      <text x="55" y="388" fill="#405477">Cài đặt</text>
    </g>
    <rect x="170" y="35" width="285" height="34" rx="17" fill="#f3f6fb"/>
    <text x="205" y="57" font-family="Inter, Arial, sans-serif" font-size="13" fill="#9aa8bf">Tìm kiếm...</text>
    <text x="171" y="107" font-family="Inter, Arial, sans-serif" font-size="24" font-weight="800" fill="#0f172a">Tổng quan</text>
    <g transform="translate(171 130)" font-family="Inter, Arial, sans-serif">
      <g filter="url(#cardShadow)">
        <rect width="116" height="72" rx="12" fill="#fff"/>
        <text x="16" y="25" font-size="11" fill="#718096">Tổng nhân viên</text>
        <text x="16" y="53" font-size="24" font-weight="800" fill="#0f172a">1,248</text>
      </g>
      <g transform="translate(132 0)" filter="url(#cardShadow)">
        <rect width="116" height="72" rx="12" fill="#fff"/>
        <text x="16" y="25" font-size="11" fill="#718096">Hôm nay</text>
        <text x="16" y="53" font-size="24" font-weight="800" fill="#0f172a">1,156</text>
      </g>
      <g transform="translate(264 0)" filter="url(#cardShadow)">
        <rect width="116" height="72" rx="12" fill="#fff"/>
        <text x="16" y="25" font-size="11" fill="#718096">Đang nghỉ</text>
        <text x="16" y="53" font-size="24" font-weight="800" fill="#0f172a">92</text>
      </g>
      <g transform="translate(396 0)" filter="url(#cardShadow)">
        <rect width="116" height="72" rx="12" fill="#fff"/>
        <text x="16" y="25" font-size="11" fill="#718096">Yêu cầu chờ duyệt</text>
        <text x="16" y="53" font-size="24" font-weight="800" fill="#0f172a">18</text>
      </g>
    </g>
    <g transform="translate(171 228)" filter="url(#cardShadow)">
      <rect width="275" height="155" rx="14" fill="#fff"/>
      <text x="18" y="30" font-family="Inter, Arial, sans-serif" font-size="13" font-weight="800" fill="#334155">Biểu đồ chấm công</text>
      <polyline points="22,115 58,93 92,104 128,73 168,88 204,52 240,80" fill="none" stroke="#2f86ff" stroke-width="4"/>
      <polyline points="22,133 58,126 92,129 128,121 168,128 204,112 240,124" fill="none" stroke="#f472b6" stroke-width="4"/>
      <circle cx="128" cy="73" r="5" fill="#2f86ff"/>
      <circle cx="204" cy="112" r="5" fill="#f472b6"/>
    </g>
    <g transform="translate(470 228)" filter="url(#cardShadow)">
      <rect width="170" height="155" rx="14" fill="#fff"/>
      <text x="18" y="30" font-family="Inter, Arial, sans-serif" font-size="13" font-weight="800" fill="#334155">Cơ cấu nhân sự</text>
      <circle cx="72" cy="88" r="42" fill="none" stroke="#2f86ff" stroke-width="16" stroke-dasharray="92 180"/>
      <circle cx="72" cy="88" r="42" fill="none" stroke="#f472b6" stroke-width="16" stroke-dasharray="52 220" stroke-dashoffset="-95"/>
      <circle cx="72" cy="88" r="42" fill="none" stroke="#f59e0b" stroke-width="16" stroke-dasharray="38 240" stroke-dashoffset="-150"/>
      <text x="54" y="95" font-family="Inter, Arial, sans-serif" font-size="20" font-weight="800" fill="#0f172a">80%</text>
    </g>
    <g transform="translate(171 405)" font-family="Inter, Arial, sans-serif">
      <text x="0" y="0" font-size="13" font-weight="800" fill="#334155">Nhân sự nổi bật</text>
      <circle cx="22" cy="34" r="14" fill="#bfdbfe"/>
      <text x="45" y="39" font-size="12" font-weight="700" fill="#334155">Nguyễn Văn A</text>
      <circle cx="185" cy="34" r="14" fill="#bbf7d0"/>
      <text x="208" y="39" font-size="12" font-weight="700" fill="#334155">Trần Thị B</text>
      <circle cx="348" cy="34" r="14" fill="#fecdd3"/>
      <text x="371" y="39" font-size="12" font-weight="700" fill="#334155">Lê Văn C</text>
    </g>
  </g>

  <g transform="translate(1584 96) rotate(7)" filter="url(#softShadow)">
    <rect width="228" height="502" rx="42" fill="#0b1744"/>
    <rect x="12" y="12" width="204" height="478" rx="34" fill="#f8fbff"/>
    <path d="M12 44C12 26 26 12 44 12H184C202 12 216 26 216 44V236H12V44Z" fill="url(#phoneGradient)"/>
    <rect x="78" y="23" width="72" height="12" rx="6" fill="#0b1744" opacity="0.8"/>
    <text x="34" y="86" font-family="Inter, Arial, sans-serif" font-size="14" fill="#ffffff">Xin chào,</text>
    <text x="34" y="112" font-family="Inter, Arial, sans-serif" font-size="21" font-weight="800" fill="#ffffff">Nguyễn Văn A</text>
    <text x="34" y="137" font-family="Inter, Arial, sans-serif" font-size="12" fill="#e0f2fe">Chúc bạn một ngày hiệu quả!</text>
    <rect x="28" y="168" width="172" height="84" rx="14" fill="#ffffff"/>
    <text x="43" y="193" font-family="Inter, Arial, sans-serif" font-size="12" fill="#64748b">Chấm công hôm nay</text>
    <text x="43" y="222" font-family="Inter, Arial, sans-serif" font-size="26" font-weight="800" fill="#0f172a">08:30:45</text>
    <rect x="43" y="235" width="70" height="18" rx="9" fill="#dcfce7"/>
    <text x="54" y="248" font-family="Inter, Arial, sans-serif" font-size="9" font-weight="700" fill="#15803d">Đã chấm công</text>
    <rect x="28" y="267" width="172" height="34" rx="10" fill="url(#brandAccent)"/>
    <text x="84" y="289" font-family="Inter, Arial, sans-serif" font-size="12" font-weight="800" fill="#ffffff">Chấm công</text>
    <g transform="translate(28 326)" font-family="Inter, Arial, sans-serif">
      <g>
        <rect width="172" height="46" rx="12" fill="#ffffff"/>
        <circle cx="23" cy="23" r="12" fill="#ede9fe"/>
        <text x="46" y="20" font-size="12" font-weight="800" fill="#334155">Đơn xin nghỉ phép</text>
        <text x="46" y="36" font-size="10" fill="#94a3b8">Đã được duyệt</text>
      </g>
      <g transform="translate(0 58)">
        <rect width="172" height="46" rx="12" fill="#ffffff"/>
        <circle cx="23" cy="23" r="12" fill="#e0f2fe"/>
        <text x="46" y="20" font-size="12" font-weight="800" fill="#334155">Lịch họp phòng</text>
        <text x="46" y="36" font-size="10" fill="#94a3b8">10:00 AM - Phòng 3</text>
      </g>
    </g>
  </g>

  <g transform="translate(1015 620)" filter="url(#cardShadow)">
    <rect width="565" height="48" rx="24" fill="#ffffff"/>
    <circle cx="37" cy="24" r="15" fill="#fff1f2" stroke="#fb7185" stroke-width="2"/>
    <path d="M31 23c5 9 8 11 13 0" fill="none" stroke="#fb7185" stroke-width="3" stroke-linecap="round"/>
    <text x="70" y="31" font-family="Inter, Arial, sans-serif" font-size="19" fill="#334155">
      Kết nối <tspan fill="#1767ff" font-weight="800">con người</tspan> - Tối ưu <tspan fill="#e536cd" font-weight="800">vận hành</tspan> - Kiến tạo <tspan fill="#ff5f7d" font-weight="800">tương lai</tspan>
    </text>
  </g>
  <g transform="translate(1796 565)" filter="url(#softShadow)">
    <path d="M53 0l48 18v49c0 44-25 74-48 84C30 141 5 111 5 67V18L53 0Z" fill="#dbeafe" stroke="#80b7ff" stroke-width="4"/>
    <path d="M33 69l16 16 29-45" fill="none" stroke="#2563eb" stroke-width="10" stroke-linecap="round" stroke-linejoin="round"/>
  </g>
</svg>
