<svg xmlns="http://www.w3.org/2000/svg" width="960" height="640" viewBox="0 0 960 640" role="img" aria-labelledby="title desc">
  <title id="title">Tai va cai APK BIZEN tren Android</title>
  <desc id="desc">Huong dan tai APK, cho phep install unknown apps va cai BIZEN tren Android.</desc>
  <defs>
    <linearGradient id="bg" x1="0" y1="0" x2="1" y2="1">
      <stop offset="0" stop-color="#ecfdf5"/>
      <stop offset="1" stop-color="#ffffff"/>
    </linearGradient>
    <filter id="shadow" x="-20%" y="-20%" width="140%" height="140%">
      <feDropShadow dx="0" dy="18" stdDeviation="18" flood-color="#0f172a" flood-opacity=".16"/>
    </filter>
  </defs>
  <rect width="960" height="640" rx="32" fill="url(#bg)"/>
  <circle cx="814" cy="116" r="92" fill="#dcfce7" opacity=".8"/>
  <g filter="url(#shadow)">
    <rect x="84" y="92" width="240" height="420" rx="38" fill="#111827"/>
    <rect x="100" y="122" width="208" height="360" rx="26" fill="#ffffff"/>
    <text x="130" y="172" font-family="Arial, sans-serif" font-size="20" font-weight="800" fill="#0f172a">Download APK</text>
    <rect x="126" y="204" width="156" height="46" rx="16" fill="#16a34a"/>
    <path d="M204 218 V236 M194 228 L204 238 L214 228" fill="none" stroke="#fff" stroke-width="4" stroke-linecap="round" stroke-linejoin="round"/>
    <text x="154" y="286" font-family="Arial, sans-serif" font-size="15" fill="#64748b">bizen-android-demo.apk</text>
    <rect x="126" y="324" width="156" height="42" rx="14" fill="#f8fafc" stroke="#e2e8f0"/>
    <text x="172" y="350" font-family="Arial, sans-serif" font-size="15" font-weight="800" fill="#0f172a">Open</text>
  </g>
  <g filter="url(#shadow)">
    <rect x="360" y="92" width="240" height="420" rx="38" fill="#111827"/>
    <rect x="376" y="122" width="208" height="360" rx="26" fill="#ffffff"/>
    <text x="407" y="172" font-family="Arial, sans-serif" font-size="20" font-weight="800" fill="#0f172a">Install unknown apps</text>
    <rect x="402" y="212" width="156" height="54" rx="18" fill="#fef3c7" stroke="#fde68a"/>
    <text x="424" y="235" font-family="Arial, sans-serif" font-size="14" font-weight="800" fill="#92400e">Allow from this source</text>
    <rect x="508" y="236" width="34" height="18" rx="9" fill="#16a34a"/>
    <circle cx="533" cy="245" r="13" fill="#ffffff" stroke="#16a34a"/>
    <rect x="402" y="306" width="156" height="42" rx="14" fill="#2563eb"/>
    <text x="451" y="332" font-family="Arial, sans-serif" font-size="15" font-weight="800" fill="#ffffff">Install</text>
  </g>
  <g filter="url(#shadow)">
    <rect x="636" y="92" width="240" height="420" rx="38" fill="#111827"/>
    <rect x="652" y="122" width="208" height="360" rx="26" fill="#ffffff"/>
    <rect x="708" y="174" width="96" height="96" rx="26" fill="#0f172a"/>
    <text x="740" y="235" font-family="Arial, sans-serif" font-size="42" font-weight="900" fill="#ffffff">B</text>
    <text x="706" y="310" font-family="Arial, sans-serif" font-size="22" font-weight="800" fill="#0f172a">BIZEN</text>
    <text x="690" y="340" font-family="Arial, sans-serif" font-size="14" fill="#64748b">Da cai dat thanh cong</text>
    <rect x="694" y="382" width="124" height="42" rx="14" fill="#16a34a"/>
    <text x="733" y="408" font-family="Arial, sans-serif" font-size="15" font-weight="800" fill="#ffffff">Open</text>
  </g>
  <path d="M326 302 H354" stroke="#16a34a" stroke-width="5" stroke-linecap="round"/>
  <path d="M342 288 L356 302 L342 316" fill="none" stroke="#16a34a" stroke-width="5" stroke-linecap="round" stroke-linejoin="round"/>
  <path d="M602 302 H630" stroke="#16a34a" stroke-width="5" stroke-linecap="round"/>
  <path d="M618 288 L632 302 L618 316" fill="none" stroke="#16a34a" stroke-width="5" stroke-linecap="round" stroke-linejoin="round"/>
  <text x="74" y="584" font-family="Arial, sans-serif" font-size="18" font-weight="800" fill="#0f172a">Android: tai APK, mo file, cho phep cai dat neu may hoi, roi bam Install.</text>
</svg>
