<svg xmlns="http://www.w3.org/2000/svg" width="960" height="640" viewBox="0 0 960 640" role="img" aria-labelledby="title desc">
  <title id="title">Chon Add to Home Screen tren iOS</title>
  <desc id="desc">Huong dan chon Add to Home Screen va bam Add de them BIZEN vao man hinh chinh.</desc>
  <defs>
    <linearGradient id="bg" x1="0" y1="0" x2="1" y2="1">
      <stop offset="0" stop-color="#ffffff"/>
      <stop offset="1" stop-color="#f1f5f9"/>
    </linearGradient>
    <filter id="shadow" x="-20%" y="-20%" width="140%" height="140%">
      <feDropShadow dx="0" dy="18" stdDeviation="18" flood-color="#0f172a" flood-opacity=".16"/>
    </filter>
  </defs>
  <rect width="960" height="640" rx="32" fill="url(#bg)"/>
  <g filter="url(#shadow)">
    <rect x="324" y="56" width="312" height="528" rx="44" fill="#0f172a"/>
    <rect x="342" y="86" width="276" height="468" rx="30" fill="#ffffff"/>
    <rect x="360" y="114" width="240" height="120" rx="24" fill="#f8fafc" stroke="#e2e8f0"/>
    <text x="386" y="160" font-family="Arial, sans-serif" font-size="22" font-weight="800" fill="#0f172a">BIZEN</text>
    <text x="386" y="188" font-family="Arial, sans-serif" font-size="14" fill="#64748b">Mobile workspace</text>
    <rect x="342" y="250" width="276" height="304" rx="30" fill="#f8fafc" stroke="#e2e8f0"/>
    <rect x="366" y="276" width="228" height="42" rx="14" fill="#ffffff" stroke="#e2e8f0"/>
    <text x="388" y="302" font-family="Arial, sans-serif" font-size="15" font-weight="700" fill="#334155">Copy</text>
    <rect x="366" y="328" width="228" height="48" rx="14" fill="#eff6ff" stroke="#93c5fd"/>
    <rect x="386" y="341" width="22" height="22" rx="5" fill="#2563eb"/>
    <path d="M397 347 V363 M389 355 H405" stroke="#fff" stroke-width="3" stroke-linecap="round"/>
    <text x="420" y="358" font-family="Arial, sans-serif" font-size="15" font-weight="800" fill="#1d4ed8">Add to Home Screen</text>
    <rect x="366" y="386" width="228" height="42" rx="14" fill="#ffffff" stroke="#e2e8f0"/>
    <text x="388" y="412" font-family="Arial, sans-serif" font-size="15" font-weight="700" fill="#334155">Find on Page</text>
    <rect x="366" y="438" width="228" height="42" rx="14" fill="#ffffff" stroke="#e2e8f0"/>
    <text x="388" y="464" font-family="Arial, sans-serif" font-size="15" font-weight="700" fill="#334155">Add Bookmark</text>
  </g>
  <g>
    <rect x="74" y="96" width="246" height="150" rx="24" fill="#ffffff" stroke="#dbe3ef"/>
    <circle cx="110" cy="134" r="18" fill="#2563eb"/>
    <text x="104" y="141" font-family="Arial, sans-serif" font-size="20" font-weight="800" fill="#ffffff">3</text>
    <text x="140" y="132" font-family="Arial, sans-serif" font-size="19" font-weight="800" fill="#0f172a">Chon Add to Home Screen</text>
    <text x="140" y="160" font-family="Arial, sans-serif" font-size="14" fill="#64748b">Keo danh sach xuong neu chua thay</text>
    <text x="140" y="184" font-family="Arial, sans-serif" font-size="14" fill="#64748b">roi bam Add o man tiep theo.</text>
  </g>
  <path d="M320 182 C372 228 384 286 412 338" fill="none" stroke="#2563eb" stroke-width="4" stroke-linecap="round"/>
  <path d="M397 335 L412 338 L417 324" fill="none" stroke="#2563eb" stroke-width="4" stroke-linecap="round" stroke-linejoin="round"/>
  <g>
    <rect x="666" y="150" width="218" height="332" rx="34" fill="#0f172a" filter="url(#shadow)"/>
    <rect x="680" y="176" width="190" height="280" rx="24" fill="#ffffff"/>
    <text x="710" y="218" font-family="Arial, sans-serif" font-size="18" font-weight="800" fill="#0f172a">Add to Home Screen</text>
    <rect x="724" y="248" width="88" height="88" rx="24" fill="#0f172a"/>
    <text x="732" y="300" font-family="Arial, sans-serif" font-size="28" font-weight="900" fill="#ffffff">B</text>
    <text x="720" y="374" font-family="Arial, sans-serif" font-size="16" font-weight="800" fill="#0f172a">BIZEN</text>
    <rect x="724" y="398" width="88" height="34" rx="12" fill="#2563eb"/>
    <text x="755" y="420" font-family="Arial, sans-serif" font-size="14" font-weight="800" fill="#ffffff">Add</text>
  </g>
  <text x="74" y="586" font-family="Arial, sans-serif" font-size="17" font-weight="800" fill="#0f172a">Sau khi Add, icon BIZEN se nam tren Home Screen nhu app binh thuong.</text>
</svg>
